<svg xmlns="http://www.w3.org/2000/svg" xmlns:xlink="http://www.w3.org/1999/xlink" width="500" zoomAndPan="magnify" viewBox="0 0 375 374.999991" height="500" preserveAspectRatio="xMidYMid meet" version="1.0"><defs><clipPath id="198d970d5f"><path d="M 88.019531 69.253906 L 277.769531 69.253906 L 277.769531 259 L 88.019531 259 Z M 88.019531 69.253906 " clip-rule="nonzero"/></clipPath></defs><g clip-path="url(#198d970d5f)"><path fill="#ff3b00" d="M 87.988281 164.203125 C 87.988281 111.859375 130.421875 69.433594 182.757812 69.433594 C 222.703125 69.433594 256.875 94.148438 270.820312 129.125 L 240.960938 130.507812 L 240.902344 130.507812 C 234.996094 130.433594 230.34375 127.9375 228.003906 122.40625 L 227.714844 121.695312 L 227.703125 121.65625 L 227.683594 121.613281 L 227.660156 121.542969 C 226.011719 117.46875 223.789062 114.152344 219.945312 111.890625 C 215.152344 109.066406 208.769531 108.523438 203.335938 108.523438 C 192.894531 108.523438 180.5625 111.601562 171.535156 116.90625 C 165.117188 120.671875 158.628906 126.621094 158.628906 134.644531 C 158.628906 142.671875 165.117188 148.617188 171.535156 152.386719 C 180.5625 157.691406 192.894531 160.769531 203.335938 160.769531 C 208.777344 160.769531 215.160156 160.226562 219.945312 157.402344 C 223.8125 155.117188 226.042969 151.761719 227.691406 147.667969 C 227.734375 147.554688 227.785156 147.4375 227.832031 147.324219 L 227.832031 147.292969 L 227.984375 146.9375 C 230.320312 141.386719 234.917969 138.859375 240.902344 138.785156 L 240.960938 138.785156 L 274.5 140.339844 C 276.480469 147.964844 277.535156 155.960938 277.535156 164.203125 C 277.535156 172.738281 276.398438 181.007812 274.285156 188.875 L 242.882812 190.328125 L 242.8125 190.328125 C 236.757812 190.25 231.988281 187.667969 229.589844 182.003906 L 229.304688 181.277344 L 229.296875 181.253906 L 229.285156 181.226562 L 229.253906 181.144531 C 227.632812 177.148438 225.457031 173.886719 221.683594 171.664062 C 216.953125 168.878906 210.617188 168.347656 205.253906 168.347656 C 204.734375 168.347656 204.214844 168.367188 203.691406 168.398438 C 203.394531 168.417969 203.097656 168.441406 202.804688 168.480469 L 202.367188 168.53125 L 202.070312 168.449219 L 161.984375 171.894531 L 161.992188 175.5 L 204.351562 175.808594 L 204.949219 181.8125 L 157.066406 185.378906 L 157.300781 189.289062 L 205.539062 190.0625 L 205.628906 192.1875 C 205.648438 192.632812 205.652344 193.074219 205.652344 193.511719 C 205.652344 193.957031 205.648438 194.40625 205.628906 194.851562 L 205.539062 196.964844 L 157.300781 198.050781 L 157.074219 201.960938 L 204.957031 205.214844 L 204.359375 211.222656 L 161.992188 211.527344 L 161.992188 215.152344 L 202.085938 219.808594 L 202.371094 219.734375 L 202.796875 219.785156 C 203.097656 219.816406 203.394531 219.839844 203.691406 219.859375 C 204.214844 219.890625 204.734375 219.910156 205.253906 219.910156 C 210.617188 219.910156 216.953125 219.378906 221.683594 216.589844 C 225.488281 214.351562 227.667969 211.050781 229.285156 207.027344 C 229.320312 206.933594 229.359375 206.839844 229.398438 206.75 L 229.398438 206.71875 L 229.574219 206.300781 C 231.96875 200.621094 236.6875 198.011719 242.8125 197.929688 L 242.882812 197.929688 L 270.867188 199.222656 C 256.945312 234.246094 222.75 259 182.765625 259 C 130.414062 258.972656 87.988281 216.546875 87.988281 164.203125 " fill-opacity="1" fill-rule="evenodd"/></g></svg>